<!DOCTYPE svg PUBLIC "-//W3C//DTD SVG 1.1//EN" "http://www.w3.org/Graphics/SVG/1.1/DTD/svg11.dtd">
<!-- Uploaded to: SVG Repo, www.svgrepo.com, Transformed by: SVG Repo Mixer Tools -->
<svg version="1.1" id="_x34_" xmlns="http://www.w3.org/2000/svg" xmlns:xlink="http://www.w3.org/1999/xlink" viewBox="0 0 512.00 512.00" xml:space="preserve" width="256px" height="256px" fill="#120202" transform="rotate(0)matrix(1, 0, 0, 1, 0, 0)" stroke="#120202" stroke-width="2.048">
<g id="SVGRepo_bgCarrier" stroke-width="0"/>
<g id="SVGRepo_tracerCarrier" stroke-linecap="round" stroke-linejoin="round"/>
<g id="SVGRepo_iconCarrier"> <g> <g> <g> <g> <polygon style="fill:#F5F5E1;" points="128.266,422.248 114.196,426.157 112.49,419.975 107.729,402.991 92.167,347.065 92.096,346.852 91.599,345.005 95.222,344.009 105.669,341.096 107.303,346.852 122.937,402.991 127.627,419.975 "/> </g> <g> <rect x="247.383" y="341.504" transform="matrix(0.9633 0.2684 -0.2684 0.9633 112.2911 -54.2838)" style="fill:#F5F5E1;" width="14.663" height="84.227"/> </g> </g> <g> <g> <rect x="116.432" y="374.33" transform="matrix(0.1038 0.9946 -0.9946 0.1038 522.0516 183.9394)" style="fill:#F5F5E1;" width="85.048" height="14.664"/> </g> <g> <rect x="200.6" y="339.138" transform="matrix(0.9946 0.1038 -0.1038 0.9946 40.7435 -19.5232)" style="fill:#F5F5E1;" width="14.663" height="85.048"/> </g> </g> <g> <path style="fill:#82afc4;" d="M366.536,181.065v4.406c0,0.782-0.071,1.492-0.071,2.274v0.925c0,0.07,0,0.07,0,0.141 c0,0.356-0.071,0.71-0.071,1.066v0.995c0,0.212-0.071,0.426-0.071,0.71c0,0.356,0,0.71-0.071,1.137c0,0.426,0,0.853-0.071,1.279 v0.71c-0.071,0.925-0.142,1.848-0.213,2.772c0,0.568-0.071,1.065-0.142,1.634c-0.071,0.852-0.142,1.777-0.213,2.628 c0,0.285-0.071,0.498-0.071,0.783c-0.142,0.853-0.213,1.777-0.285,2.629c-0.071,0.284-0.071,0.568-0.142,0.924 c0,0.285-0.071,0.568-0.142,0.923v0.285c-0.071,0.285-0.071,0.569-0.142,0.854c-0.497,3.908-1.137,7.816-1.918,11.653 c-0.071,0.285-0.142,0.569-0.213,0.924c0,0,0,0.071,0,0.142c-0.071,0.285-0.142,0.639-0.213,0.995 c-0.071,0.285-0.142,0.639-0.213,0.995c-0.071,0.213-0.142,0.426-0.213,0.711c-0.071,0.285-0.071,0.498-0.142,0.782 c-0.284,1.279-0.64,2.558-0.924,3.838c-0.071,0.284-0.142,0.568-0.213,0.853c-0.213,0.71-0.355,1.35-0.568,1.99 c-0.071,0.285-0.142,0.639-0.213,0.923c-0.071,0.142-0.071,0.285-0.142,0.498c-0.071,0.285-0.213,0.64-0.285,0.995 c-0.142,0.426-0.213,0.853-0.355,1.279c-0.071,0.284-0.213,0.568-0.284,0.852c-0.071,0.356-0.213,0.782-0.285,1.137 c-0.284,0.782-0.568,1.635-0.782,2.487c-0.142,0.285-0.213,0.569-0.355,0.925c-0.071,0.284-0.142,0.568-0.285,0.852 c-0.071,0.356-0.213,0.711-0.355,1.066c0,0,0,0,0,0.071c-0.213,0.639-0.426,1.279-0.639,1.919 c-0.356,0.995-0.711,1.99-1.066,2.985c-0.142,0.285-0.213,0.568-0.355,0.782c-0.071,0.212-0.142,0.426-0.213,0.568 c-0.142,0.356-0.213,0.711-0.355,1.066c-0.853,2.202-1.777,4.406-2.7,6.538c-0.213,0.568-0.497,1.065-0.71,1.634 c-0.285,0.639-0.569,1.208-0.853,1.848c-0.142,0.355-0.284,0.639-0.426,0.923c-0.142,0.285-0.213,0.498-0.355,0.711 c-0.356,0.782-0.711,1.563-1.066,2.274c-0.142,0.284-0.213,0.497-0.355,0.781c-0.142,0.285-0.285,0.64-0.497,0.925 c-0.924,1.847-1.848,3.695-2.843,5.471c-0.142,0.285-0.284,0.497-0.426,0.782c-0.213,0.356-0.355,0.711-0.569,0.995 c-0.142,0.356-0.355,0.639-0.497,0.924c-0.142,0.285-0.356,0.569-0.497,0.924c-0.355,0.568-0.711,1.208-1.066,1.848 c-0.213,0.284-0.355,0.497-0.497,0.781c-0.142,0.285-0.355,0.569-0.497,0.924c-1.066,1.777-2.203,3.482-3.34,5.259 c-0.284,0.497-0.64,0.924-0.924,1.422H30.414c-17.41-26.365-28.282-57.49-30.13-91.031C0.071,190.019,0,186.679,0,183.268 C0,82.36,81.579,0.497,182.344,0h5.33c0.64,0,1.279,0,1.919,0.071c1.279,0.071,2.558,0.142,3.766,0.213 c3.695,0.213,7.391,0.497,11.015,0.923h0.071c1.066,0.142,2.132,0.285,3.198,0.427c0.355,0,0.711,0.071,1.066,0.142 c0.711,0.071,1.35,0.142,2.061,0.285c0.355,0.071,0.711,0.071,1.066,0.141l1.066,0.213c1.777,0.284,3.553,0.568,5.33,0.924 c1.706,0.356,3.411,0.71,5.117,1.066c0.355,0.07,0.71,0.141,0.995,0.213c0.355,0.071,0.71,0.142,1.066,0.285 c0.355,0.071,0.64,0.142,0.995,0.213h0.071c0.639,0.142,1.35,0.356,1.99,0.498c0.356,0.071,0.711,0.213,1.066,0.284 c0.426,0.071,0.853,0.213,1.279,0.355c0.213,0.071,0.498,0.142,0.71,0.142c0.356,0.142,0.711,0.213,0.995,0.285 c0.355,0.142,0.711,0.213,1.066,0.285c0.569,0.213,1.208,0.356,1.777,0.568c0.781,0.213,1.492,0.427,2.203,0.639 c0.355,0.142,0.71,0.213,0.995,0.356c0.355,0.071,0.71,0.213,0.995,0.285c0.356,0.142,0.711,0.213,0.995,0.356 c0.355,0.071,0.711,0.213,0.995,0.284c0.355,0.142,0.71,0.213,0.995,0.355c0.355,0.142,0.639,0.213,0.995,0.356 c0.64,0.213,1.35,0.427,1.99,0.711c0.284,0.071,0.64,0.213,0.995,0.355c0.497,0.142,1.066,0.355,1.634,0.568 c1.421,0.569,2.913,1.137,4.406,1.777c0.569,0.213,1.137,0.427,1.634,0.64c0.995,0.426,1.99,0.853,2.985,1.279 c0.284,0.142,0.568,0.285,0.853,0.427c0.639,0.284,1.279,0.568,1.848,0.853c0.355,0.141,0.639,0.284,0.995,0.426 c0.924,0.427,1.848,0.854,2.772,1.351c0.284,0.141,0.64,0.284,0.924,0.426c0.284,0.142,0.64,0.285,0.924,0.498 c0.284,0.142,0.569,0.213,0.853,0.356c0.64,0.355,1.279,0.71,1.919,0.994c1.066,0.569,2.061,1.137,3.056,1.705 c0.781,0.356,1.492,0.783,2.203,1.208c0.995,0.568,1.919,1.137,2.913,1.634c0.569,0.356,1.066,0.71,1.635,1.066 c0.639,0.356,1.208,0.711,1.777,1.066c0.284,0.141,0.568,0.355,0.853,0.497c0.284,0.213,0.568,0.427,0.924,0.569 c0.284,0.213,0.568,0.355,0.853,0.568c0.284,0.213,0.568,0.355,0.853,0.568c0.497,0.285,0.995,0.64,1.492,0.995 c0.071,0.071,0.213,0.142,0.285,0.213c1.137,0.71,2.203,1.492,3.269,2.202c0.071,0.071,0.071,0.071,0.071,0.071 c0.853,0.569,1.635,1.137,2.488,1.705c0.284,0.213,0.497,0.427,0.781,0.64c0.853,0.639,1.634,1.208,2.487,1.848 c0.285,0.213,0.497,0.426,0.782,0.639c0.284,0.213,0.568,0.426,0.853,0.568c0.213,0.213,0.497,0.427,0.782,0.64 c0.284,0.284,0.639,0.497,0.924,0.781c0.426,0.285,0.781,0.64,1.208,0.925c0.853,0.711,1.777,1.492,2.629,2.203 c0.213,0.213,0.426,0.356,0.64,0.568c0.284,0.213,0.639,0.498,0.924,0.782c0.213,0.213,0.497,0.426,0.782,0.639 c1.777,1.563,3.482,3.127,5.187,4.762c0.213,0.142,0.355,0.284,0.569,0.497c1.421,1.351,2.771,2.7,4.193,4.05 c0.213,0.285,0.497,0.569,0.71,0.783c0.213,0.213,0.355,0.355,0.497,0.497c0.213,0.213,0.426,0.497,0.639,0.71 c0.497,0.498,1.066,1.066,1.564,1.634c0.213,0.213,0.355,0.356,0.569,0.569c2.416,2.629,4.761,5.33,7.035,8.1 c0.213,0.285,0.426,0.498,0.639,0.782c0.142,0.142,0.213,0.213,0.355,0.356c0.213,0.284,0.427,0.567,0.64,0.852 c0.213,0.285,0.497,0.64,0.782,0.925c0.142,0.213,0.285,0.426,0.497,0.638c1.208,1.635,2.487,3.269,3.695,4.904 c0.213,0.285,0.426,0.568,0.569,0.853c0.426,0.569,0.853,1.137,1.279,1.777c0.355,0.498,0.782,0.995,1.137,1.563 c0.142,0.285,0.355,0.569,0.569,0.854c0.355,0.568,0.781,1.136,1.208,1.777c0.284,0.497,0.64,0.994,0.995,1.563 c1.137,1.705,2.274,3.482,3.34,5.258c0.142,0.285,0.356,0.568,0.497,0.923c0.142,0.213,0.285,0.498,0.497,0.783 c0.355,0.568,0.711,1.207,1.066,1.848c0.142,0.285,0.355,0.639,0.497,0.923c0.142,0.285,0.355,0.569,0.497,0.854 c0.213,0.356,0.356,0.71,0.569,1.065c0.142,0.213,0.285,0.498,0.426,0.782c0.995,1.777,1.919,3.624,2.843,5.472 c0.213,0.284,0.355,0.639,0.497,0.923c0.142,0.285,0.213,0.498,0.355,0.782c0.355,0.71,0.71,1.492,1.066,2.202 c0.142,0.285,0.213,0.497,0.355,0.711c0.142,0.356,0.284,0.64,0.426,0.995c0.284,0.568,0.568,1.208,0.853,1.848 c0.213,0.568,0.497,1.066,0.71,1.634c0.924,2.132,1.848,4.335,2.7,6.538c0.142,0.356,0.213,0.71,0.355,1.065 c0.071,0.142,0.142,0.356,0.213,0.498c0.142,0.285,0.213,0.569,0.355,0.853c0.355,0.995,0.71,1.99,1.066,2.914 c0.213,0.71,0.426,1.35,0.639,1.99v0.071c0.142,0.355,0.284,0.71,0.355,1.065c0.142,0.285,0.213,0.569,0.285,0.854 c0.142,0.284,0.213,0.638,0.355,0.923c0.213,0.854,0.497,1.634,0.782,2.488c0.071,0.355,0.213,0.71,0.285,1.065 c0.071,0.285,0.213,0.64,0.284,0.925c0.142,0.426,0.213,0.852,0.355,1.279c0.071,0.356,0.213,0.639,0.285,0.995 c0.071,0.141,0.071,0.355,0.142,0.497c0.071,0.285,0.142,0.569,0.213,0.853c0.213,0.71,0.355,1.351,0.568,1.99 c0.071,0.284,0.142,0.568,0.213,0.853c0.284,1.279,0.64,2.629,0.924,3.909c0.071,0.213,0.071,0.497,0.142,0.782 c0.071,0.213,0.142,0.497,0.213,0.71c0.071,0.356,0.142,0.71,0.213,0.995c0.071,0.355,0.142,0.639,0.213,0.995 c0,0.071,0,0.071,0,0.142c0.071,0.284,0.142,0.639,0.213,0.923c0.782,3.838,1.421,7.746,1.918,11.655 c0.071,0.284,0.071,0.568,0.142,0.852v0.285c0.071,0.285,0.142,0.64,0.142,0.924c0.071,0.285,0.071,0.639,0.142,0.924 c0.071,0.853,0.142,1.705,0.285,2.629c0,0.213,0.071,0.497,0.071,0.71c0.071,0.924,0.142,1.777,0.213,2.7 c0.071,0.497,0.142,1.066,0.142,1.564c0.071,0.923,0.142,1.848,0.213,2.842v0.711c0.071,0.426,0.071,0.852,0.071,1.279 c0.071,0.356,0.071,0.782,0.071,1.137c0,0.212,0.071,0.497,0.071,0.71v0.995c0,0.355,0.071,0.71,0.071,1.066 c0,0.071,0,0.071,0,0.142v0.923C366.465,179.573,366.536,180.283,366.536,181.065z"/> <path style="fill:#FFFFFF;" d="M328.407,183.26c0,37.382-8.864,72.149-24.087,101.134H62.216 c-15.223-28.985-24.087-63.752-24.087-101.134c0-100.814,64.475-182.617,144.201-183.252c0.313-0.002,0.626-0.005,0.939-0.005 c0.313,0,0.626,0,0.938,0.005C263.932,0.643,328.407,82.446,328.407,183.26z"/> <path style="fill:#82afc4;" d="M255.647,183.26c0,37.382-4.421,72.149-12.012,101.134H122.898 c-7.591-28.985-12.012-63.752-12.012-101.134c0-101.21,32.406-183.257,72.382-183.257 C223.243,0.003,255.647,82.05,255.647,183.26z"/> </g> <path style="opacity:0.1;fill:#040000;" d="M366.536,181.065v4.406c0,0.782-0.071,1.492-0.071,2.274v0.925c0,0.07,0,0.07,0,0.141 c0,0.356-0.071,0.71-0.071,1.066v0.995c0,0.212-0.071,0.426-0.071,0.71c0,0.356,0,0.71-0.071,1.137c0,0.426,0,0.853-0.071,1.279 v0.71c-0.071,0.925-0.142,1.848-0.213,2.772c0,0.568-0.071,1.065-0.142,1.634c-0.071,0.852-0.142,1.777-0.213,2.628 c0,0.285-0.071,0.498-0.071,0.783c-0.142,0.853-0.213,1.777-0.285,2.629c-0.071,0.284-0.071,0.568-0.142,0.924 c0,0.285-0.071,0.568-0.142,0.923v0.285c-0.071,0.285-0.071,0.569-0.142,0.854c-0.497,3.908-1.137,7.816-1.918,11.653 c-0.071,0.285-0.142,0.569-0.213,0.924c0,0,0,0.071,0,0.142c-0.071,0.285-0.142,0.639-0.213,0.995 c-0.071,0.285-0.142,0.639-0.213,0.995c-0.071,0.213-0.142,0.426-0.213,0.711c-0.071,0.285-0.071,0.498-0.142,0.782 c-0.284,1.279-0.64,2.558-0.924,3.838c-0.071,0.284-0.142,0.568-0.213,0.853c-0.213,0.71-0.355,1.35-0.568,1.99 c-0.071,0.285-0.142,0.639-0.213,0.923c-0.071,0.142-0.071,0.285-0.142,0.498c-0.071,0.285-0.213,0.64-0.285,0.995 c-0.142,0.426-0.213,0.853-0.355,1.279c-0.071,0.284-0.213,0.568-0.284,0.852c-0.071,0.356-0.213,0.782-0.285,1.137 c-0.284,0.782-0.568,1.635-0.782,2.487c-0.142,0.285-0.213,0.569-0.355,0.925c-0.071,0.284-0.142,0.568-0.285,0.852 c-0.071,0.356-0.213,0.711-0.355,1.066c0,0,0,0,0,0.071c-0.213,0.639-0.426,1.279-0.639,1.919 c-0.356,0.995-0.711,1.99-1.066,2.985c-0.142,0.285-0.213,0.568-0.355,0.782c-0.071,0.212-0.142,0.426-0.213,0.568 c-0.142,0.356-0.213,0.711-0.355,1.066c-0.853,2.202-1.777,4.406-2.7,6.538c-0.213,0.568-0.497,1.065-0.71,1.634 c-0.285,0.639-0.569,1.208-0.853,1.848c-0.142,0.355-0.284,0.639-0.426,0.923c-0.142,0.285-0.213,0.498-0.355,0.711 c-0.356,0.782-0.711,1.563-1.066,2.274c-0.142,0.284-0.213,0.497-0.355,0.781c-0.142,0.285-0.285,0.64-0.497,0.925 c-0.924,1.847-1.848,3.695-2.843,5.471c-0.142,0.285-0.284,0.497-0.426,0.782c-0.213,0.356-0.355,0.711-0.569,0.995 c-0.142,0.356-0.355,0.639-0.497,0.924c-0.142,0.285-0.356,0.569-0.497,0.924c-0.355,0.568-0.711,1.208-1.066,1.848 c-0.213,0.284-0.355,0.497-0.497,0.781c-0.142,0.285-0.355,0.569-0.497,0.924c-1.066,1.777-2.203,3.482-3.34,5.259 c-0.284,0.497-0.64,0.924-0.924,1.422H183.268V0h4.406c1.919,0,3.908,0.071,5.827,0.142c3.624,0.213,7.248,0.568,10.873,1.065 h0.071c1.066,0.142,2.132,0.285,3.198,0.427c0.355,0,0.711,0.071,1.066,0.142c0.711,0.071,1.35,0.142,2.061,0.285 c0.355,0.071,0.711,0.071,1.066,0.141l1.066,0.213c1.777,0.284,3.553,0.568,5.33,0.924c1.706,0.356,3.411,0.71,5.117,1.066 c0.355,0.07,0.71,0.141,0.995,0.213c0.355,0.071,0.71,0.142,1.066,0.285c0.355,0.071,0.64,0.142,0.995,0.213h0.071 c0.639,0.142,1.35,0.356,1.99,0.498c0.356,0.071,0.711,0.213,1.066,0.284c0.426,0.071,0.853,0.213,1.279,0.355 c0.213,0.071,0.498,0.142,0.71,0.142c0.356,0.142,0.711,0.213,0.995,0.285c0.355,0.142,0.711,0.213,1.066,0.285 c0.569,0.213,1.208,0.356,1.777,0.568c0.781,0.213,1.492,0.427,2.203,0.639c0.355,0.142,0.71,0.213,0.995,0.356 c0.355,0.071,0.71,0.213,0.995,0.285c0.356,0.142,0.711,0.213,0.995,0.356c0.355,0.071,0.711,0.213,0.995,0.284 c0.355,0.142,0.71,0.213,0.995,0.355c0.355,0.142,0.639,0.213,0.995,0.356c0.64,0.213,1.35,0.427,1.99,0.711 c0.284,0.071,0.64,0.213,0.995,0.355c0.497,0.142,1.066,0.355,1.634,0.568c1.421,0.569,2.913,1.137,4.406,1.777 c0.569,0.213,1.137,0.427,1.634,0.64c0.995,0.426,1.99,0.853,2.985,1.279c0.284,0.142,0.568,0.285,0.853,0.427 c0.639,0.284,1.279,0.568,1.848,0.853c0.355,0.141,0.639,0.284,0.995,0.426c0.924,0.427,1.848,0.854,2.772,1.351 c0.284,0.141,0.64,0.284,0.924,0.426c0.284,0.142,0.64,0.285,0.924,0.498c0.284,0.142,0.569,0.213,0.853,0.356 c0.64,0.355,1.279,0.71,1.919,0.994c1.066,0.569,2.061,1.137,3.056,1.705c0.781,0.356,1.492,0.783,2.203,1.208 c0.995,0.568,1.919,1.137,2.913,1.634c0.569,0.356,1.066,0.71,1.635,1.066c0.639,0.356,1.208,0.711,1.777,1.066 c0.284,0.141,0.568,0.355,0.853,0.497c0.284,0.213,0.568,0.427,0.924,0.569c0.284,0.213,0.568,0.355,0.853,0.568 c0.284,0.213,0.568,0.355,0.853,0.568c0.497,0.285,0.995,0.64,1.492,0.995c0.071,0.071,0.213,0.142,0.285,0.213 c1.137,0.71,2.203,1.492,3.269,2.202c0.071,0.071,0.071,0.071,0.071,0.071c0.853,0.569,1.635,1.137,2.488,1.705 c0.284,0.213,0.497,0.427,0.781,0.64c0.853,0.639,1.634,1.208,2.487,1.848c0.285,0.213,0.497,0.426,0.782,0.639 c0.284,0.213,0.568,0.426,0.853,0.568c0.213,0.213,0.497,0.427,0.782,0.64c0.284,0.284,0.639,0.497,0.924,0.781 c0.426,0.285,0.781,0.64,1.208,0.925c0.853,0.711,1.777,1.492,2.629,2.203c0.213,0.213,0.426,0.356,0.64,0.568 c0.284,0.213,0.639,0.498,0.924,0.782c0.213,0.213,0.497,0.426,0.782,0.639c1.777,1.563,3.482,3.127,5.187,4.762 c0.213,0.142,0.355,0.284,0.569,0.497c1.421,1.351,2.771,2.7,4.193,4.05c0.213,0.285,0.497,0.569,0.71,0.783 c0.213,0.213,0.355,0.355,0.497,0.497c0.213,0.213,0.426,0.497,0.639,0.71c0.497,0.498,1.066,1.066,1.564,1.634 c0.213,0.213,0.355,0.356,0.569,0.569c2.416,2.629,4.761,5.33,7.035,8.1c0.213,0.285,0.426,0.498,0.639,0.782 c0.142,0.142,0.213,0.213,0.355,0.356c0.213,0.284,0.427,0.567,0.64,0.852c0.213,0.285,0.497,0.64,0.782,0.925 c0.142,0.213,0.285,0.426,0.497,0.638c1.208,1.635,2.487,3.269,3.695,4.904c0.213,0.285,0.426,0.568,0.569,0.853 c0.426,0.569,0.853,1.137,1.279,1.777c0.355,0.498,0.782,0.995,1.137,1.563c0.142,0.285,0.355,0.569,0.569,0.854 c0.355,0.568,0.781,1.136,1.208,1.777c0.284,0.497,0.64,0.994,0.995,1.563c1.137,1.705,2.274,3.482,3.34,5.258 c0.142,0.285,0.356,0.568,0.497,0.923c0.142,0.213,0.285,0.498,0.497,0.783c0.355,0.568,0.711,1.207,1.066,1.848 c0.142,0.285,0.355,0.639,0.497,0.923c0.142,0.285,0.355,0.569,0.497,0.854c0.213,0.356,0.356,0.71,0.569,1.065 c0.142,0.213,0.285,0.498,0.426,0.782c0.995,1.777,1.919,3.624,2.843,5.472c0.213,0.284,0.355,0.639,0.497,0.923 c0.142,0.285,0.213,0.498,0.355,0.782c0.355,0.71,0.71,1.492,1.066,2.202c0.142,0.285,0.213,0.497,0.355,0.711 c0.142,0.356,0.284,0.64,0.426,0.995c0.284,0.568,0.568,1.208,0.853,1.848c0.213,0.568,0.497,1.066,0.71,1.634 c0.924,2.132,1.848,4.335,2.7,6.538c0.142,0.356,0.213,0.71,0.355,1.065c0.071,0.142,0.142,0.356,0.213,0.498 c0.142,0.285,0.213,0.569,0.355,0.853c0.355,0.995,0.71,1.99,1.066,2.914c0.213,0.71,0.426,1.35,0.639,1.99v0.071 c0.142,0.355,0.284,0.71,0.355,1.065c0.142,0.285,0.213,0.569,0.285,0.854c0.142,0.284,0.213,0.638,0.355,0.923 c0.213,0.854,0.497,1.634,0.782,2.488c0.071,0.355,0.213,0.71,0.285,1.065c0.071,0.285,0.213,0.64,0.284,0.925 c0.142,0.426,0.213,0.852,0.355,1.279c0.071,0.356,0.213,0.639,0.285,0.995c0.071,0.141,0.071,0.355,0.142,0.497 c0.071,0.285,0.142,0.569,0.213,0.853c0.213,0.71,0.355,1.351,0.568,1.99c0.071,0.284,0.142,0.568,0.213,0.853 c0.284,1.279,0.64,2.629,0.924,3.909c0.071,0.213,0.071,0.497,0.142,0.782c0.071,0.213,0.142,0.497,0.213,0.71 c0.071,0.356,0.142,0.71,0.213,0.995c0.071,0.355,0.142,0.639,0.213,0.995c0,0.071,0,0.071,0,0.142 c0.071,0.284,0.142,0.639,0.213,0.923c0.782,3.838,1.421,7.746,1.918,11.655c0.071,0.284,0.071,0.568,0.142,0.852v0.285 c0.071,0.285,0.142,0.64,0.142,0.924c0.071,0.285,0.071,0.639,0.142,0.924c0.071,0.853,0.142,1.705,0.285,2.629 c0,0.213,0.071,0.497,0.071,0.71c0.071,0.924,0.142,1.777,0.213,2.7c0.071,0.497,0.142,1.066,0.142,1.564 c0.071,0.923,0.142,1.848,0.213,2.842v0.711c0.071,0.426,0.071,0.852,0.071,1.279c0.071,0.356,0.071,0.782,0.071,1.137 c0,0.212,0.071,0.497,0.071,0.71v0.995c0,0.355,0.071,0.71,0.071,1.066c0,0.071,0,0.071,0,0.142v0.923 C366.465,179.573,366.536,180.283,366.536,181.065z"/> <polygon style="fill:#82afc4;" points="336.477,284.389 287.8,346.852 79.092,346.852 30.414,284.389 "/> <path style="fill:#A87B5D;" d="M262.786,402.991v57.418c0,15.704-7.106,29.846-18.334,39.368 C235.427,507.38,223.844,512,211.195,512h-55.499c-4.548,0-8.954-0.569-13.146-1.706c-7.461-1.989-14.355-5.613-20.111-10.517 c-7.959-6.751-13.857-15.847-16.628-26.222c-1.137-4.191-1.706-8.598-1.706-13.145v-57.418H262.786z"/> <path style="fill:#88634A;" d="M244.445,499.756c-8.989,7.608-20.6,12.21-33.227,12.21H155.67c-12.63,0-24.236-4.602-33.227-12.21 H244.445z"/> <g> <rect x="104.105" y="419.975" style="fill:#B79075;" width="158.681" height="12.507"/> <rect x="104.105" y="443.424" style="fill:#B79075;" width="158.681" height="12.507"/> <rect x="104.105" y="419.975" style="fill:#B79075;" width="158.681" height="12.507"/> <rect x="104.105" y="443.424" style="fill:#B79075;" width="158.681" height="12.507"/> </g> <path style="fill:#F7F5C1;" d="M242.747,430.608c0,10.696-7.244,19.367-16.181,19.367s-16.181-8.671-16.181-19.367 c0-10.696,11.467-29.894,16.181-29.894C232.49,400.713,242.747,419.912,242.747,430.608z"/> </g> <path style="opacity:0.1;fill:#FFFFFF;" d="M344.01,95.222l-24.587,24.588l-63.743,63.742L92.167,347.065l-0.071-0.213H79.092 l-48.677-62.463c-17.41-26.365-28.282-57.49-30.13-91.031C0.071,190.019,0,186.679,0,183.268C0,82.36,81.579,0.497,182.344,0h5.33 c0.64,0,1.279,0,1.919,0.071c1.279,0,2.629,0,3.908,0.071c3.624,0.213,7.248,0.568,10.873,1.065h0.071 c1.066,0.142,2.132,0.285,3.198,0.427c0.355,0,0.711,0.071,1.066,0.142c0.711,0.071,1.35,0.142,2.061,0.285 c0.355,0.071,0.711,0.071,1.066,0.141l1.066,0.213c1.777,0.284,3.553,0.568,5.33,0.924c1.706,0.356,3.411,0.71,5.117,1.066 c0.355,0.07,0.71,0.141,0.995,0.213c0.355,0.071,0.71,0.142,1.066,0.285c0.355,0.071,0.64,0.142,0.995,0.213h0.071 c0.639,0.142,1.35,0.356,1.99,0.498c0.356,0.071,0.711,0.213,1.066,0.284c0.426,0.071,0.853,0.213,1.279,0.355 c0.213,0.071,0.498,0.142,0.71,0.142c0.356,0.142,0.711,0.213,0.995,0.285c0.355,0.142,0.711,0.213,1.066,0.285 c0.569,0.213,1.208,0.356,1.777,0.568c0.781,0.213,1.492,0.427,2.203,0.639c0.355,0.142,0.71,0.213,0.995,0.356 c0.355,0.071,0.71,0.213,0.995,0.285c0.356,0.142,0.711,0.213,0.995,0.356c0.355,0.071,0.711,0.213,0.995,0.284 c0.355,0.142,0.71,0.213,0.995,0.355c0.355,0.142,0.639,0.213,0.995,0.356c0.64,0.213,1.35,0.427,1.99,0.711 c0.284,0.071,0.64,0.213,0.995,0.355c0.497,0.142,1.066,0.355,1.634,0.568c1.421,0.569,2.913,1.137,4.406,1.777 c0.569,0.213,1.137,0.427,1.634,0.64c0.995,0.426,1.99,0.853,2.985,1.279c0.284,0.142,0.568,0.285,0.853,0.427 c0.639,0.284,1.279,0.568,1.848,0.853c0.355,0.141,0.639,0.284,0.995,0.426c0.924,0.427,1.848,0.854,2.772,1.351 c0.284,0.141,0.64,0.284,0.924,0.426c0.284,0.142,0.64,0.285,0.924,0.498c0.284,0.142,0.569,0.213,0.853,0.356 c0.64,0.355,1.279,0.71,1.919,0.994c1.066,0.569,2.061,1.137,3.056,1.705c0.781,0.356,1.492,0.783,2.203,1.208 c0.995,0.568,1.919,1.137,2.913,1.634c0.569,0.356,1.066,0.71,1.635,1.066c0.639,0.356,1.208,0.711,1.777,1.066 c0.284,0.141,0.568,0.355,0.853,0.497c0.284,0.213,0.568,0.427,0.924,0.569c0.284,0.213,0.568,0.355,0.853,0.568 c0.284,0.213,0.568,0.355,0.853,0.568c0.497,0.285,0.995,0.64,1.492,0.995c0.071,0.071,0.213,0.142,0.285,0.213 c1.137,0.71,2.203,1.492,3.269,2.202c0.071,0.071,0.071,0.071,0.071,0.071c0.853,0.569,1.635,1.137,2.488,1.705 c0.284,0.213,0.497,0.427,0.781,0.64c0.853,0.639,1.634,1.208,2.487,1.848c0.285,0.213,0.497,0.426,0.782,0.639 c0.284,0.213,0.568,0.426,0.853,0.568c0.213,0.213,0.497,0.427,0.782,0.64c0.284,0.284,0.639,0.497,0.924,0.781 c0.426,0.285,0.781,0.64,1.208,0.925c0.853,0.711,1.777,1.492,2.629,2.203c0.213,0.213,0.426,0.356,0.64,0.568 c0.284,0.213,0.639,0.498,0.924,0.782c0.213,0.213,0.497,0.426,0.782,0.639c1.777,1.563,3.482,3.127,5.187,4.762 c0.213,0.142,0.355,0.284,0.569,0.497c1.421,1.351,2.771,2.7,4.193,4.05c0.213,0.285,0.497,0.569,0.71,0.783 c0.213,0.213,0.355,0.355,0.497,0.497c0.213,0.213,0.426,0.497,0.639,0.71c0.497,0.498,1.066,1.066,1.564,1.634 c0.213,0.213,0.355,0.356,0.569,0.569c2.416,2.629,4.761,5.33,7.035,8.1c0.213,0.285,0.426,0.498,0.639,0.782 c0.142,0.142,0.213,0.213,0.355,0.356c0.213,0.284,0.427,0.567,0.64,0.852c0.213,0.285,0.497,0.64,0.782,0.925 c0.142,0.213,0.285,0.426,0.497,0.638c1.208,1.635,2.487,3.269,3.695,4.904c0.213,0.285,0.426,0.568,0.569,0.853 c0.426,0.569,0.853,1.137,1.279,1.777c0.355,0.498,0.782,0.995,1.137,1.563c0.142,0.285,0.355,0.569,0.569,0.854 c0.355,0.568,0.781,1.136,1.137,1.777c0.355,0.497,0.711,0.994,1.066,1.563c1.137,1.705,2.274,3.482,3.34,5.258 c0.142,0.285,0.356,0.568,0.497,0.923c0.142,0.213,0.285,0.498,0.497,0.783c0.355,0.568,0.711,1.207,1.066,1.848 c0.142,0.285,0.355,0.639,0.497,0.923c0.142,0.285,0.355,0.569,0.497,0.854C343.654,94.512,343.797,94.867,344.01,95.222z"/> </g> </g>
</svg>