<svg id="Layer_1" data-name="Layer 1" xmlns="http://www.w3.org/2000/svg" viewBox="0 0 640.942 743.728"><g id="f1503154-f50a-4680-8aa4-587be41cac87"><rect id="e1abf0e4-070b-4c82-8a12-ebedd4e3db02" y="352.128" width="611.5" height="391.6" style="fill:#e6e6e6"/><rect id="ace8bea0-82e8-49b8-a50c-1e1cb532084f" x="2.5" y="401.228" width="576.5" height="319.3" style="fill:#fff"/><rect id="b540f353-e277-4512-bc56-a133cea2858b" x="0.2" y="351.728" width="611.5" height="26" style="fill:#6c63ff"/><circle id="a5a428bb-42a2-4f57-9e6c-9979c01a2490" cx="574.2" cy="365.018" r="4.8" transform="translate(-11.829 19.32) rotate(-1.907)" style="fill:#fff"/><circle id="a9929a25-14ce-4464-bac9-4165f1e3fae6" cx="555.9" cy="365.028" r="4.8" style="fill:#fff"/><path id="b4a2d72b-abc3-4d2f-a2b8-a2aff6897b26-116" d="M491.1,446.018l38.2,37.6-38.1,37.7-8.6-8.6,28.8-28.8-29.1-29.1Z" transform="translate(0 0.01)" style="fill:#6c63ff"/><path id="b5120d89-6cbe-4bfa-9a1b-cf9b07deff91-117" d="M459.9,446.018l-38.1,37.7,38.1,37.7,8.6-8.6-28.8-28.8,29.1-29.1Z" transform="translate(0 0.01)" style="fill:#6c63ff"/><path id="a31271bd-8e2f-469b-8cee-8b6db3f92f99-118" d="M336.6,455.418c3.1,0,5.6,1.8,5.6,4s-2.5,4-5.6,4H70.3c-3.1,0-5.6-1.8-5.6-4s2.5-4,5.6-4Z" transform="translate(0 0.01)" style="fill:#e6e6e6"/><path id="bf577952-0fd5-43e0-be6b-ea1966b51a93-119" d="M73,674.918H520.8c4.6,0,8.3-2.6,8.3-5.9v-79c0-3.3-3.7-5.9-8.3-5.9H73c-4.6,0-8.3,2.6-8.3,5.9v79C64.7,672.318,68.4,674.918,73,674.918Zm447.8-88.5c2.7,0,5,1.6,5,3.5v79c0,2-2.2,3.5-5,3.5H73c-2.7,0-5-1.6-5-3.5v-79c0-2,2.2-3.5,5-3.5Z" transform="translate(0 0.01)" style="fill:#e6e6e6"/><circle id="f7f4957b-eaa8-456b-bf02-bacf7de3ef80" cx="474.7" cy="629.428" r="20" style="fill:#e6e6e6"/><path id="fb0f055d-da6e-47f2-bb6d-7ff26d7b746a-120" d="M418.2,613.418a4,4,0,0,1,0,8H229.3a4,4,0,0,1,0-8Z" transform="translate(0 0.01)" style="fill:#6c63ff"/><path id="bfcde504-8c45-4d21-843b-87b1f7e22ce0-121" d="M418.2,637.518a4,4,0,1,1,0,8H336.9a4,4,0,0,1,0-8Z" transform="translate(0 0.01)" style="fill:#6c63ff"/><path id="a66699ea-75f1-4575-b6d5-52b0b1f8e30c-122" d="M338.5,479.418a4.019,4.019,0,0,1,3.7,4.3,4.063,4.063,0,0,1-3.7,3.7H164a4.019,4.019,0,0,1-3.7-4.3,4.063,4.063,0,0,1,3.7-3.7Z" transform="translate(0 0.01)" style="fill:#e6e6e6"/><path id="bbc4ca7b-25d4-4c7e-b3d4-0411f69bd48f-123" d="M337.4,503.418c2.7,0,4.9,1.8,4.9,4s-2.2,4-4.9,4H108.7c-2.7,0-4.9-1.8-4.9-4s2.2-4,4.9-4Z" transform="translate(0 0.01)" style="fill:#e6e6e6"/><path d="M546.3.018a8.766,8.766,0,0,1,5,1.1c1.5,1,2.4,2.8,3.4,4.4a52.309,52.309,0,0,0,14.4,16.3c4.3,3.1,9.7,7.1,9,12.9a17.852,17.852,0,0,1-2.1,5.4c-4,8-14.8,14.2-13.7,23.3-3.9-6.6,1.3-9.8-2.6-16.4-1.9-3.1-5.1-6.7-8-4.7a29.513,29.513,0,0,1-2.6,2.4c-2.4,1.4-4.9-1.3-6.9-3.1-7.2-6.4-17.4-4.8-26.3-2.7-4.2.9-8.8,2.2-11.3,6.2-3.3,5.3,3.1,11,4.7,17a3.389,3.389,0,0,1-2.3,4,4.889,4.889,0,0,1-1.2.1c-2.7-.3-5.9-.5-6-1.7-3.4.1-7.5-.3-8.9-3.8a15.458,15.458,0,0,1-.7-4.3c-.5-5.9-3-11.3-4.7-16.9s-2.4-12.2.4-17.2a17.792,17.792,0,0,1,3.7-4.5C505.5,2.518,526.3.018,546.3.018Z" transform="translate(0 0.01)" style="fill:#2f2e41"/><path d="M558.9,74.918s-3.5,28.8,9.2,31.1-11.5,41.4-11.5,41.4l-57.6,6.9,13.8-46s9.2-3.5,3.5-26.5S558.9,74.918,558.9,74.918Z" transform="translate(0 0.01)" style="fill:#ffb8b8"/><polygon points="594 569.328 589.4 632.728 565.2 632.728 572.1 569.328 594 569.328" style="fill:#ffb8b8"/><polygon points="416.7 449.628 413.2 502.628 386.8 491.128 397.1 447.328 416.7 449.628" style="fill:#ffb8b8"/><path d="M611.2,327.618s-1.2,66.8-8.1,88.6-5.8,23-4.6,26.5,2.3,1.2,2.3,6.9,2.3,96.7,0,104.8,6.9,21.9,0,23-39.1,0-40.3-6.9,9.2-9.2,4.6-13.8-11.5-99-11.5-99l-16.1-65.6-29.9-34.5H444.3l-19.6,76s8.1,21.9,2.3,21.9-40.3,6.9-40.3-18.4,11.6-100.3,13.9-102.6-1.2-10.4,2.3-13.8,43.7-27.6,58.7-32.2,36-10.1,36-10.1Z" transform="translate(0 0.01)" style="fill:#2f2e41"/><path d="M386.8,481.918s17.3-5.8,25.3,11.5c8.1,17.3,4.6,21.9,4.6,21.9s-26.5,9.2-31.1,4.6c-2-2-8.4-2.7-14.9-2.8-10-.2-12.6-14.3-3.2-17.6l.9-.3C377.6,496.818,386.8,481.918,386.8,481.918Z" transform="translate(0 0.01)" style="fill:#2f2e41"/><circle cx="533" cy="59.428" r="34.5" style="fill:#ffb8b8"/><path d="M577.9,120.418s-56.4,11.5-70.2-6.9-19.6,51.8-19.6,51.8l-6.9,73.7,10.4,40.3s54.1,43.7,71.4,47.2,43.7,5.8,43.7,5.8-8.1-127.8-8.1-130.1S577.9,120.418,577.9,120.418Z" transform="translate(0 0.01)" style="fill:#6c63ff"/><path d="M560.7,98.818s12.5-7.2,16-.3,35.7,24.2,39.1,24.2-6.9,95.5-2.3,107.1,26.5,95.5,13.8,102.5c-12.7,6.9-3.5-6.9-16.1,10.4-12.7,17.3-74.8,17.3-78.3,10.4s27.6-58.7,21.9-107.1-15-115.1-6.9-124.3S560.7,98.818,560.7,98.818Z" transform="translate(0 0.01)" style="fill:#2f2e41"/><path d="M519.2,106.618l-1.6-5.5s-47.9,15.9-50.2,26.2-1.2,82.9,6.9,88.6,19.6,15,11.5,28.8-17.3,28.8-24.2,29.9-19.6,9.2-16.1,17.3,44.9-6.9,44.9-6.9,27.6-20.7,26.5-53S519.2,106.618,519.2,106.618Z" transform="translate(0 0.01)" style="fill:#2f2e41"/><path d="M478.9,242.418l27.6,51.8s40.3,41.4,17.3,46-35.7-38-35.7-38l-29.9-42.6Z" transform="translate(0 0.01)" style="fill:#ffb8b8"/><path d="M544.7,9.118a7.776,7.776,0,0,1,4,.8,8.931,8.931,0,0,1,2.7,3.1,40.428,40.428,0,0,0,11.8,11.5c3.5,2.2,7.9,5,7.3,9.1a10.081,10.081,0,0,1-1.7,3.8,30.761,30.761,0,0,0-3.7,18.8l-9.6-14c-1.5-2.2-4.2-4.7-6.5-3.3-.8.5-1.3,1.3-2.1,1.7-1.9,1-4-.9-5.6-2.2-5.8-4.6-14.1-3.4-21.4-1.9-3.4.7-7.2,1.5-9.2,4.4-3.4,4.7.1,11.6-1.8,17a5.151,5.151,0,0,1-2.1-3.3c-2.7.1-6.1-.2-7.3-2.7a10.64,10.64,0,0,1-.6-3c-.4-4.2-2.5-8-3.8-11.9s-1.9-8.6.3-12.1a11.07,11.07,0,0,1,3-3.1C511.4,10.818,528.4,9.018,544.7,9.118Z" transform="translate(0 0.01)" style="fill:#2f2e41"/><path d="M478.9,122.718l-10.7,2.8s-25,63.9-19.2,107.7,9.2,34.5,9.2,34.5,9.2-20.7,29.9-16.1Z" transform="translate(0 0.01)" style="fill:#2f2e41"/><path d="M592.4,624.318c2.8,3.8,2.2,9.2,4.7,13.2,2.1,3.5,6.1,5.3,8.8,8.3a19.415,19.415,0,0,1,2.3,3.3c2.5,4.1,4.5,9.5,2,13.6-2,3.3-6.1,4.7-9.9,5.6-4.8,1.1-9.7,2-14.6,1.2s-9.5-3.8-11.3-8.4a19.586,19.586,0,0,0-1.2-3.4c-2.6-5.2-10.8-5.2-13.5-10.3-1.9-3.6-.2-7.9,1.6-11.6l5.3-11.2c1.7-3.7,8.8-1.6,12.5-2.5C583.9,620.818,588.9,619.618,592.4,624.318Z" transform="translate(0 0.01)" style="fill:#2f2e41"/><path d="M630.8,265.418l-48.3,74.8s-29.9,38-39.1,20.7,32.2-46,32.2-46l31.1-57.6Z" transform="translate(0 0.01)" style="fill:#ffb8b8"/><path d="M606.6,125.018l9.2-2.3s18.4,5.8,23,29.9,1.2,120.9-4.6,122-28.4-16.8-32.1-13,7.9-15.8,4.4-26.1S606.6,125.018,606.6,125.018Z" transform="translate(0 0.01)" style="fill:#2f2e41"/></g></svg>