<svg id="Layer_1" data-name="Layer 1" xmlns="http://www.w3.org/2000/svg" viewBox="0 0 219.577 554.36"><path id="f499a4aa-6a35-40fc-8432-e4c7ab26d048-103" d="M382.726,628.437l-1.467,19.035-16.6,2.441-9.762-9.274,11.226-18.06Z" transform="translate(-196.928 -119.683)" style="fill:#f9b7b8"/><path id="fb70bf31-eafd-4d8a-8310-5130d8d104e1-104" d="M394.927,385.364s13.18,15.619-3.417,39.536S354.9,472.246,354.9,472.246l-37.1,70.286s-19.036,68.822-23.429,70.774-6.833-5.857-4.393,2.44.976,7.81-.977,8.3-7.32-.488-5.369,2.929,3.417,3.417-.488,3.417-5.369-2.44-5.369.976-3.417,11.226-3.417,11.226-23.917-6.833-24.893-9.762,6.345-4.393,4.881-7.321-1.952-2.929-1.952-7.321,2.929-5.369,2.929-5.369,2.44-.976,1.464-2.929-4.881-.976,0-3.417,24.895-77.121,24.895-77.121,0-37.1,6.345-49.3,1.464-99.084,16.6-100.06S394.927,385.364,394.927,385.364Z" transform="translate(-196.928 -119.683)" style="fill:#302e41"/><path id="a89455c2-275d-4b70-b13c-192fbe474176-105" d="M390.046,413.185l-2.929,75.655s14.643,73.215,9.762,95.667-1.464,19.524-4.393,23.429-5.369,1.952-2.929,5.369,3.9,4.393,0,8.3-5.857,13.179-5.857,13.179l-24.893-2.44s6.345-11.226,3.9-13.667-8.786,1.464-3.9-3.9,7.81-2.929,4.881-5.369-7.321-1.464-3.417-5.369,8.3-3.9,4.393-5.369-8.3,0-6.345-2.929,4.393-6.345,4.393-6.345l-5.857-44.417s-6.833-14.643-4.881-20.988-8.3-58.572-8.3-58.572Z" transform="translate(-196.928 -119.683)" style="fill:#302e41"/><path id="a3024be5-ad86-493a-9bfb-258ab58160a1-106" d="M379.31,638.2s4.881-4.881,6.345-1.952,12.2,29.286,5.857,31.238-15.619,3.9-20.5,2.44-15.131-8.3-27.333-8.3-22.452-5.369-22.452-7.321-1.952-13.667,7.321-13.667S354.905,629.9,354.905,629.9s3.9-7.81,5.857-7.321.488,16.107.488,16.107S372.474,649.424,379.31,638.2Z" transform="translate(-196.928 -119.683)" style="fill:#302e41"/><path id="a57c92ce-496a-44de-934b-3ddd78679762-107" d="M270.951,644.543s4.393-10.738,8.786-8.3,1.464,32.7,1.464,32.7-3.9,6.345-15.131,4.881-41-4.881-47.834-3.417-25.381-6.833-20.5-18.06c0,0,2.44-6.345,14.155-5.857s33.191-13.667,33.191-13.667,3.417-9.762,4.393-8.786,1.952,18.06,1.952,18.06S264.117,650.4,270.951,644.543Z" transform="translate(-196.928 -119.683)" style="fill:#302e41"/><circle id="fa315d33-3eeb-4d45-ab88-aeb0e9694c5a" cx="137.964" cy="46.525" r="28.31" style="fill:#f9b7b8"/><path id="fbae87ba-2986-46ef-9932-134b7e0cae24-108" d="M356.856,168.16s15.131,30.262,20.5,33.191-36.607,20.989-36.607,20.989-6.833-29.774-15.131-36.119S356.856,168.16,356.856,168.16Z" transform="translate(-196.928 -119.683)" style="fill:#f9b7b8"/><path id="fc15680c-e415-4000-ac02-b1f296562473-109" d="M313.415,415.625l-1.952,18.548s-20.988-7.321-14.155-20.988Z" transform="translate(-196.928 -119.683)" style="fill:#f9b7b8"/><path id="ae3770ab-4aa4-41b9-9f4d-4c69df699916-110" d="M305.12,387.8c14.643,15.615,92.247,2.436,92.247,2.436l-.971-11.225,9.762-10.243-2.927-47.837s8.78-22.45,10.243-56.617a30.831,30.831,0,0,0-.378-6.278c-5.032-30.607-54.87-50.32-56.239-49.857-.69.227-8.026,4.05-15.682,8.072-8.789,4.617-17.994,9.5-17.994,9.5-11.716,4.4-9.762,74.687-13.67,81.031s0,28.3,0,28.3l-4.39,20.987S290.474,372.189,305.12,387.8Z" transform="translate(-196.928 -119.683)" style="fill:#f1f0f0"/><path id="b41fb511-fd5e-48e5-b733-0d9230f6b6d5-111" d="M352.426,232.852s13.667,41,10.738,68.822-34.656,107.382-34.656,107.382l-10.732,5.857v13.666l-7.553-20.458,20.77-43.428S305.076,214.793,352.426,232.852Z" transform="translate(-196.928 -119.683)" style="fill:#010101;isolation:isolate;opacity:0.10000000149011612"/><path id="efbdbf49-3b58-4bc5-8391-5fbab31acdf7-112" d="M339.607,220.55c14.161-7.808,35.639,12.7,58.091,34.657,8.062,7.883,12.726,7.09,15.4,2.832-5.032-30.607-54.87-50.32-56.239-49.857-.69.227-8.026,4.05-15.681,8.072Z" transform="translate(-196.928 -119.683)" style="fill:#010101;isolation:isolate;opacity:0.10000000149011612"/><path id="a2828270-d54b-4ede-bb2b-8639f55947f0-113" d="M339.614,216.777l5.857-16.107s40.024-19.036,66.381,0L416.245,228s3.9,45.393-18.548,23.429S353.768,208.967,339.614,216.777Z" transform="translate(-196.928 -119.683)" style="fill:#f1f0f0"/><path id="f68da632-d878-40c3-a103-67cfc5c970db-114" d="M351,226.244s13.667,41,10.737,68.822-34.655,107.382-34.655,107.382l-10.738,5.861v13.667l-22.452-6.345,4.881-16.107s-7.81-9.762-2.44-12.691,4.393-19.036,4.393-19.036S303.654,208.184,351,226.244Z" transform="translate(-196.928 -119.683)" style="fill:#f1f0f0"/><path id="f57115f6-7f5b-4177-880b-f5eff1305e5b-115" d="M360.13,178.059c-.462-2.188-.4-4.542-1.448-6.517-1.573-2.961-5.188-4.2-8.529-4.492-4.265-.371-8.562.367-12.833.075s-8.833-1.92-10.959-5.635c-.848-1.482-1.266-3.227-2.391-4.512-2.341-2.674-6.608-2.26-9.972-1.114s-6.873,2.82-10.312,1.924c-2.892-8.091.669-17.424,6.828-23.415s14.465-9.215,22.715-11.618c10.881-3.17,23.126-5.043,33.13.282,14.507,7.721,19.626,28.158,18.288,43.39-.506,5.758-1.333,12.278-5.988,16.165C371.836,188.29,362.19,187.8,360.13,178.059Z" transform="translate(-196.928 -119.683)" style="fill:#302e41"/></svg>