<svg id="Layer_1" data-name="Layer 1" xmlns="http://www.w3.org/2000/svg" viewBox="0 0 533.62 79.49"><defs><style>.cls-1{fill:#04505f;}.cls-2{fill:#231f20;}.cls-3{fill:#48c2c5;}.cls-4{fill:none;}.cls-4,.cls-5{stroke:#231f20;stroke-miterlimit:10;}.cls-5{fill:#2bb673;stroke-width:0.75px;}.cls-6{fill:#33669a;}.cls-7{fill:#1c75bc;}</style></defs><path class="cls-1" d="M96,365.71q0,.71-1,1a45.8,45.8,0,0,1-7.35.31,50.5,50.5,0,0,1-7.28-.31,2.14,2.14,0,0,1-1.7-1.78q-1.35-5.7-2.1-6.09t-10.6-.28q-6.72,0-7.15.35c-.45.43-1,1.84-1.51,4.24-.5,2.18-1.1,3.37-1.82,3.56a67,67,0,0,1-9,.31q-6.06,0-6.06-1.14t8.94-25.28Q59,314.37,59.84,311.76q.48-1.5,1.11-1.5c.71,0,1.81.06,3.3.19s2.61.2,3.35.2,1.76,0,3.14-.14,2.42-.13,3.1-.13c.51,0,1,.43,1.39,1.3q1.93,4.15,11.31,28.48Q96,364.64,96,365.71Zm-28-36c-.55,1.16-1.49,3.67-2.81,7.55-1.42,4.11-2.13,6.53-2.13,7.24,0,.47.79.74,2.37.79.82.05,2.16.08,4,.08s2.7-.21,2.88-.63a1.44,1.44,0,0,0,.08-.56,38.82,38.82,0,0,0-1.82-7.2A53.92,53.92,0,0,0,67.91,329.68Z" transform="translate(-40.38 -289.55)"/><path class="cls-1" d="M139,365.55a1.12,1.12,0,0,1-1.1,1.22,57.55,57.55,0,0,1-5.78.16,47.22,47.22,0,0,1-6.17-.23,1.44,1.44,0,0,1-1.18-1.63c0-1.24,0-3.11.11-5.61s.12-4.39.12-5.66c0-1,0-2.43-.08-4.37s-.07-3.39-.07-4.37q0-5.42-4.71-5.42a6.85,6.85,0,0,0-3.6,1.35c-1.48,1-2.22,2-2.22,3v21.36a1.28,1.28,0,0,1-1.22,1.46c-.92.11-2.81.16-5.66.16a48.18,48.18,0,0,1-6-.23c-.82-.14-1.22-.57-1.22-1.31,0-2.06,0-5.15,0-9.29s0-7.25,0-9.34q0-9.84-1.54-15.46a3.1,3.1,0,0,1-.08-.6.87.87,0,0,1,.6-.87q2.49-.27,6.64-.87,6.28-1.21,7.08-1.22c.29,0,.51.89.67,2.67s.38,2.67.67,2.67q-.44,0,4.26-2.75c3.12-1.83,5.86-2.75,8.2-2.75a14.21,14.21,0,0,1,8.39,2.37,8.87,8.87,0,0,1,3.76,7.6v12.61c0,1.72,0,4.28,0,7.7S139,363.83,139,365.55Z" transform="translate(-40.38 -289.55)"/><path class="cls-1" d="M172.09,355.11a32.19,32.19,0,0,1-.3,3.6,31.14,31.14,0,0,0-.29,3.54,2.74,2.74,0,0,1-.24,1.44,5,5,0,0,1-1.31.91,23.08,23.08,0,0,1-11.31,2.81q-11.43,0-11.43-8.74,0-2.61.2-7.85c.13-3.5.2-6.11.2-7.85,0-1.16-.68-1.74-2-1.74h-.51l-.52,0c-1,0-1.5-.35-1.5-1.06,0-.42,0-1.07.1-1.94s.1-1.52.1-1.94,0-1.4-.1-2.53-.1-2-.1-2.53.84-.82,2.53-.87c.95,0,1.46-.29,1.54-.79a29.3,29.3,0,0,0,.16-4.75c-.11-3.4-.16-5-.16-4.86q0-4.59.87-4.59a14.54,14.54,0,0,1,3.05.47,28.77,28.77,0,0,0,3.12.6q2,.27,6.09.75c.66,0,1,.27,1,.67,0,1.05-.08,2.65-.26,4.79s-.25,3.74-.25,4.82c0,1.29.38,1.94,1.14,1.94.93,0,2.32,0,4.2-.12s3.28-.12,4.23-.12c.58,0,.87.2.87.59,0,.61-.07,1.52-.2,2.73s-.2,2.13-.2,2.73,0,1.56,0,2.77,0,2.14,0,2.77-.38.83-1.14.83c-.53,0-1.41,0-2.65-.06s-2.13-.06-2.65-.06h-3c-.4,0-.59.58-.59,1.74v2.81c0,1.27,0,2.2,0,2.81a9.84,9.84,0,0,0,.75,4.59c.71,1.13,2.11,1.7,4.19,1.7a12.49,12.49,0,0,0,2.83-.46,12.77,12.77,0,0,1,2.59-.45C171.81,354.24,172.09,354.53,172.09,355.11Z" transform="translate(-40.38 -289.55)"/><path class="cls-1" d="M214.29,347.24q0,9-5.52,14.63t-14.49,5.62A19.55,19.55,0,0,1,180,362a19.15,19.15,0,0,1-5.62-14.24q0-9.18,5.38-14.89t14.56-5.71q8.94,0,14.47,5.59T214.29,347.24Zm-13,0a8.53,8.53,0,0,0-1.94-5.52,6.15,6.15,0,0,0-5-2.39,6.36,6.36,0,0,0-5.15,2.45,8.88,8.88,0,0,0,0,11,6.57,6.57,0,0,0,10.25,0A8.43,8.43,0,0,0,201.32,347.24Z" transform="translate(-40.38 -289.55)"/><path class="cls-1" d="M258.39,365.55a1.13,1.13,0,0,1-1.11,1.22,57.29,57.29,0,0,1-5.77.16,47.11,47.11,0,0,1-6.17-.23,1.44,1.44,0,0,1-1.19-1.63q0-1.86.12-5.61c.08-2.51.12-4.39.12-5.66,0-1,0-2.43-.08-4.37s-.08-3.39-.08-4.37q0-5.42-4.71-5.42a6.85,6.85,0,0,0-3.6,1.35c-1.47,1-2.21,2-2.21,3v21.36a1.29,1.29,0,0,1-1.23,1.46c-.92.11-2.81.16-5.65.16a48.06,48.06,0,0,1-6-.23c-.82-.14-1.23-.57-1.23-1.31,0-2.06,0-5.15,0-9.29s0-7.25,0-9.34q0-9.84-1.54-15.46a2.48,2.48,0,0,1-.08-.6.86.86,0,0,1,.59-.87c1.66-.18,3.88-.47,6.64-.87q6.3-1.21,7.08-1.22c.29,0,.52.89.68,2.67s.38,2.67.67,2.67q-.44,0,4.25-2.75c3.13-1.83,5.86-2.75,8.21-2.75a14.17,14.17,0,0,1,8.38,2.37,8.85,8.85,0,0,1,3.76,7.6v12.61c0,1.72,0,4.28,0,7.7S258.39,363.83,258.39,365.55Z" transform="translate(-40.38 -289.55)"/><path class="cls-1" d="M279.63,348.54c0,1.93,0,4.79.12,8.6s.11,6.67.11,8.57c0,.55-.33.88-1,1a80.34,80.34,0,0,1-12.15,0c-.58-.11-.93-.28-1.06-.52a4.1,4.1,0,0,1-.08-1.18q0-2.73.12-8.21t.11-8.25a144.21,144.21,0,0,0-.87-17.87c-.05-.43-.08-.7-.08-.84,0-.52.36-.79,1.07-.79s1.87.08,3.38.24,2.66.24,3.43.24,1.91-.07,3.44-.2,2.67-.2,3.44-.2.95.27.95.79c0,.11,0,.36-.08.76A161.41,161.41,0,0,0,279.63,348.54Zm1-29.38q0,6.87-7.76,6.88a8.51,8.51,0,0,1-5.49-1.74,6.59,6.59,0,0,1,.08-10.21,8.34,8.34,0,0,1,5.41-1.82,8.12,8.12,0,0,1,5.34,1.86A6.23,6.23,0,0,1,280.66,319.16Z" transform="translate(-40.38 -289.55)"/><path class="cls-1" d="M325.31,347.24q0,9-5.52,14.63t-14.49,5.62A19.53,19.53,0,0,1,291,362q-5.62-5.54-5.62-14.24,0-9.18,5.38-14.89t14.56-5.71q8.93,0,14.47,5.59T325.31,347.24Zm-13,0a8.53,8.53,0,0,0-1.94-5.52,6.15,6.15,0,0,0-5-2.39,6.36,6.36,0,0,0-5.14,2.45,8.84,8.84,0,0,0,0,11,6.57,6.57,0,0,0,10.25,0A8.43,8.43,0,0,0,312.34,347.24Z" transform="translate(-40.38 -289.55)"/><path class="cls-2" d="M383.29,312.43q0,4.51-.38,13.55t-.37,13.58v26.07c0,.71-.38,1.07-1.15,1.07s-1.59,0-2.87.07-2.23.08-2.86.08-1.72-.05-3.09-.15-2.4-.16-3.08-.16c-.48,0-1.05-.44-1.7-1.31q-2.85-3.83-12.82-17-2.73-3.69-8.3-10.84a1.74,1.74,0,0,0-.6-.48,1.11,1.11,0,0,0-.31.87q0,4.59.25,13.77t.26,13.76c0,.92-.36,1.39-1.07,1.39H331.52c-.77,0-1.15-.41-1.15-1.23q0-4.28.42-12.89t.41-12.94q0-4.54-.37-13.6t-.38-13.57c0-.58.51-.87,1.54-.87,1.53,0,3.42-.1,5.66-.31.53-.06,1.57-.23,3.12-.52a18.33,18.33,0,0,1,3.13-.35c.31,0,.8.44,1.46,1.34L360.11,332q2,2.73,6,8,1,1.23,1.71,1.23.51,0,.51-3.09,0-4.16-.45-12.5t-.46-12.54c0-1,.28-1.46.83-1.46,1.58,0,4-.06,7.16-.2s5.58-.19,7.16-.19C383,311.21,383.29,311.62,383.29,312.43Z" transform="translate(-40.38 -289.55)"/><path class="cls-3" d="M444.06,338.65a29.63,29.63,0,0,1-7.48,20.18q-6.6,7.62-18.54,8-2.3.09-12.62.08c-1.29,0-3.24,0-5.84-.12s-4.54-.11-5.83-.11c-.76,0-1.15-.31-1.15-.91q0-4.35.34-13.08t.34-13.07q0-4.54-.34-13.62t-.34-13.59c0-.55.39-.88,1.15-1q2.81-.31,9.22-.31,12.18,0,15.78.35,9.38,1,14.67,4.75a24,24,0,0,1,7.87,10A29.53,29.53,0,0,1,444.06,338.65Zm-16.95,0a15.26,15.26,0,0,0-4-10.91,13.8,13.8,0,0,0-10.68-4.39q-6.09,0-6.09,1.62,0,2.34-.08,7t-.08,7q0,2.3.08,6.9c.05,3.07.08,5.39.08,6.94,0,1.14,2.11,1.7,6.33,1.7q6.84,0,10.75-4.54Q427.12,345.69,427.11,338.65Z" transform="translate(-40.38 -289.55)"/><path class="cls-3" d="M484.34,345.22q0,4-2.57,4.55-.43.08-8.19.87-3.94.44-11.2,1a1.85,1.85,0,0,0-.66,3.5l1.3.63a11.84,11.84,0,0,0,5.22,1.11,14.89,14.89,0,0,0,7-1.86l.17-.09,1.6-1a1.85,1.85,0,0,1,2.54.53c.45.66,1,1.55,1.57,2.66,1.3,2.43,2,4,2,4.63,0,.19-.2.49-.6.91q-4.82,5.19-15,5.18-9.4,0-15.18-5.49-5.94-5.58-5.94-14.92,0-9.09,5.3-14.91,5.46-6,14.48-6A17.18,17.18,0,0,1,479,332.05,18.36,18.36,0,0,1,484.34,345.22Zm-13.84-2.41a6.11,6.11,0,0,0-1.74-4.31,5.5,5.5,0,0,0-4.15-1.86,5,5,0,0,0-4.12,2.09,7.24,7.24,0,0,0-1.5,4.55,1,1,0,0,0,1.11,1.07c1.95,0,.79.26,4.9-.35C465.87,343.87,470.5,343.1,470.5,342.81Z" transform="translate(-40.38 -289.55)"/><path class="cls-2" d="M486.35,328.2" transform="translate(-40.38 -289.55)"/><path class="cls-4" d="M55.7,355.65" transform="translate(-40.38 -289.55)"/><path class="cls-5" d="M488.6,327.75" transform="translate(-40.38 -289.55)"/><path class="cls-6" d="M543.08,320.27q-7.82-6.27-15.68-12.5t-15.76-12.41c-1.39-1.1-2.7-2.34-4.11-3.43a15.71,15.71,0,0,0-2.79-1.74l-.09,0a2.38,2.38,0,0,0-1.16-.41,34.82,34.82,0,0,0-4.68-.18,9.21,9.21,0,0,0-2.28.31,4,4,0,0,0-1.09.24,9,9,0,0,0-3.21,2.25,10.68,10.68,0,0,0-2.48,5.29,9.46,9.46,0,0,0,.62,5.83,12.78,12.78,0,0,0,3.8,4.58c4,3.18,8,6.38,12.07,9.57s8,6.36,12.11,9.5c.94.72,1.41,1.24,1.41,1.76s-.48,1-1.44,1.78q-6.27,4.83-12.46,9.78t-12.36,9.91a10.68,10.68,0,0,0-3.39,4.5,9.64,9.64,0,0,0-.29,5.59,10.59,10.59,0,0,0,2.77,5.31,9.23,9.23,0,0,0,3.37,2.12,8.78,8.78,0,0,0,4.26.81c.72,0,1.44-.12,2.15-.22a4.39,4.39,0,0,0,.67-.15A6.64,6.64,0,0,0,504,368l.46-.22a10.09,10.09,0,0,0,2-1.26c6.14-4.86,12.3-9.69,18.45-14.55s12.28-9.72,18.38-14.64c3-2.46,4.53-5.51,4.48-8.56S546.14,322.72,543.08,320.27Z" transform="translate(-40.38 -289.55)"/><path class="cls-3" d="M564.35,368.71A2.84,2.84,0,0,1,563,369c-.47,0-1-.05-1.41-.05H513.93l-.85,0a4.62,4.62,0,0,1-1-.1,1,1,0,0,1-.43-1.6,5.74,5.74,0,0,1,.78-.62c2.79-2.22,5.63-4.36,8.45-6.55s5.58-4.41,8.23-6.78a16.59,16.59,0,0,1,6-3.56A18.78,18.78,0,0,1,542,349c3.56.19,7.12.23,10.68.22s7.13-.05,10.7,0a.93.93,0,0,1,0,.4,1,1,0,0,1-.16.38,3.39,3.39,0,0,1-.65.54c-.23.15-.48.29-.71.45-3.23,2.09-4.89,5.13-4.85,8.15s1.77,6,5,8c.39.24.84.41,1.25.63A2.13,2.13,0,0,1,564.35,368.71Z" transform="translate(-40.38 -289.55)"/><ellipse class="cls-7" cx="523.62" cy="69.55" rx="10" ry="9.9"/><line class="cls-6" x1="460.62" y1="79.45" x2="460.62" y2="79.45"/></svg>