<svg id="Layer_1" data-name="Layer 1" xmlns="http://www.w3.org/2000/svg" viewBox="0 0 91.462 79.913"><path d="M257.3,285.267" transform="translate(-261.491 -247.191)"/><path d="M259.552,284.817" transform="translate(-261.491 -247.191)" style="fill:#2bb673;stroke:#000;stroke-miterlimit:10;stroke-width:0.75px"/><path d="M270.986,326.33a5.943,5.943,0,0,1-2.592-.193,9.546,9.546,0,0,1-3.856-2.3,10.626,10.626,0,0,1-2.77-5.312,9.621,9.621,0,0,1,.3-5.6,10.582,10.582,0,0,1,3.392-4.492q6.169-4.967,12.358-9.912t12.455-9.786c.962-.743,1.441-1.263,1.444-1.781s-.47-1.031-1.414-1.76q-6.091-4.7-12.111-9.5-6.032-4.78-12.062-9.564a12.65,12.65,0,0,1-3.8-4.584,9.4,9.4,0,0,1-.629-5.83,10.745,10.745,0,0,1,2.488-5.287,9.1,9.1,0,0,1,3.208-2.255,6.123,6.123,0,0,1,3.074-.46,13.869,13.869,0,0,0,1.562.085q.728,0,1.454-.074a6.141,6.141,0,0,1,3.206.525A15.16,15.16,0,0,1,279.48,250c1.415,1.083,2.719,2.33,4.115,3.424q7.89,6.189,15.751,12.415t15.688,12.5c3.054,2.446,4.623,5.493,4.667,8.542s-1.436,6.1-4.482,8.561q-9.141,7.38-18.378,14.641-9.222,7.28-18.454,14.547a10.19,10.19,0,0,1-2,1.264l-.021.01a5.951,5.951,0,0,1-3.265.439,8.169,8.169,0,0,0-2.111,0Z" transform="translate(-261.491 -247.191)" style="fill:#33669a"/><path d="M343.608,326.761a2.944,2.944,0,0,1-1.45.342c-.494.007-.994-.053-1.484-.052q-12.267.012-24.534.011H291.606c-.3,0-.6,0-.9.007s-.6,0-.9-.018a4.8,4.8,0,0,1-1.038-.1,1.014,1.014,0,0,1-.455-1.68,7.186,7.186,0,0,1,.818-.651c2.927-2.321,5.915-4.574,8.865-6.869s5.863-4.631,8.641-7.119a17.4,17.4,0,0,1,6.293-3.73,19.667,19.667,0,0,1,7.231-.818c3.729.2,7.467.239,11.207.233s7.482-.055,11.221-.038a.9.9,0,0,1,.041.425.958.958,0,0,1-.162.394,3.6,3.6,0,0,1-.681.566c-.245.164-.5.312-.75.474a9.6,9.6,0,0,0,.192,16.962c.41.252.882.421,1.312.651A2.288,2.288,0,0,1,343.608,326.761Z" transform="translate(-261.491 -247.191)" style="fill:#48c2c5"/><path d="M274.708,247.557a6.534,6.534,0,0,1-2.677.6,6.36,6.36,0,0,1-2.675-.61,9.9,9.9,0,0,1,2.677-.357A10.568,10.568,0,0,1,274.708,247.557Z" transform="translate(-261.491 -247.191)" style="fill:#3f5daa"/><path d="M269.953,326.532a4.15,4.15,0,0,1,2.073-.589,4.213,4.213,0,0,1,2.075.583,11.646,11.646,0,0,1-2.074.195A11.114,11.114,0,0,1,269.953,326.532Z" transform="translate(-261.491 -247.191)" style="fill:#3e5ba9"/><ellipse cx="80.462" cy="69.371" rx="11" ry="10.5" style="fill:#669"/><path d="M340.953,310.062" transform="translate(-261.491 -247.191)" style="fill:#669"/></svg>