<?xml version="1.0" encoding="utf-8"?>
<!-- Generator: Adobe Illustrator 26.0.1, SVG Export Plug-In . SVG Version: 6.00 Build 0)  -->
<svg version="1.1" id="Layer_1" xmlns="http://www.w3.org/2000/svg" xmlns:xlink="http://www.w3.org/1999/xlink" x="0px" y="0px"
	 viewBox="0 0 612 792" enable-background="new 0 0 612 792" xml:space="preserve">
<polygon id="background" display="none" fill="none" stroke="#000000" stroke-miterlimit="10" points="611.5,791.5 305.5,791.5 
	-0.5,791.5 -0.5,395.5 -0.5,-0.5 305.5,-0.5 611.5,-0.5 611.5,395.5 "/>
<g>
	<g>
		<path fill="#04505F" d="M94.954,364.707c0,0.475-0.33,0.804-0.989,0.989c-0.791,0.211-3.243,0.316-7.356,0.316
			c-3.771,0-6.196-0.105-7.277-0.316c-0.896-0.185-1.463-0.778-1.701-1.78c-0.896-3.797-1.596-5.827-2.096-6.091
			c-0.422-0.184-3.955-0.277-10.6-0.277c-4.483,0-6.869,0.119-7.159,0.356c-0.449,0.422-0.949,1.833-1.503,4.232
			c-0.501,2.188-1.107,3.375-1.819,3.56c-0.896,0.211-3.902,0.316-9.018,0.316c-4.034,0-6.051-0.382-6.051-1.147
			c0-0.686,2.979-9.11,8.938-25.273c6.46-17.481,9.967-27.092,10.521-28.833c0.316-1.002,0.686-1.503,1.107-1.503
			c0.712,0,1.813,0.066,3.302,0.198c1.489,0.132,2.604,0.198,3.342,0.198c0.712,0,1.76-0.046,3.144-0.138
			c1.384-0.092,2.419-0.138,3.105-0.138c0.501,0,0.962,0.435,1.384,1.305c1.292,2.769,5.062,12.261,11.312,28.477
			C91.815,355.479,94.954,363.995,94.954,364.707z M66.912,328.676c-0.554,1.161-1.49,3.678-2.808,7.554
			c-1.424,4.113-2.136,6.526-2.136,7.238c0,0.475,0.791,0.738,2.373,0.791c0.817,0.053,2.162,0.079,4.034,0.079
			c1.74,0,2.703-0.211,2.887-0.633c0.053-0.132,0.079-0.316,0.079-0.554c0-0.87-0.607-3.269-1.819-7.198
			C68.336,332.157,67.466,329.731,66.912,328.676z"/>
		<path fill="#04505F" d="M138.024,364.549c0,0.712-0.37,1.121-1.107,1.226c-0.738,0.105-2.664,0.158-5.774,0.158
			c-3.322,0-5.379-0.079-6.17-0.237s-1.187-0.699-1.187-1.622c0-1.239,0.04-3.111,0.119-5.616c0.079-2.505,0.119-4.39,0.119-5.656
			c0-0.975-0.026-2.432-0.079-4.37c-0.053-1.938-0.079-3.395-0.079-4.37c0-3.612-1.569-5.418-4.707-5.418
			c-1.028,0-2.228,0.449-3.599,1.345c-1.477,1.002-2.215,1.991-2.215,2.966v21.357c0,0.87-0.409,1.358-1.226,1.463
			c-0.923,0.105-2.808,0.158-5.656,0.158c-3.085,0-5.089-0.079-6.012-0.237c-0.817-0.132-1.226-0.567-1.226-1.305
			c0-2.057,0.013-5.155,0.04-9.294c0.026-4.139,0.04-7.251,0.04-9.334c0-6.565-0.514-11.72-1.542-15.464
			c-0.053-0.237-0.079-0.435-0.079-0.593c0-0.421,0.198-0.712,0.593-0.87c1.661-0.184,3.876-0.475,6.645-0.87
			c4.192-0.817,6.552-1.226,7.08-1.226c0.29,0,0.514,0.89,0.672,2.67s0.382,2.67,0.672,2.67c-0.29,0,1.127-0.916,4.252-2.749
			c3.125-1.833,5.86-2.749,8.207-2.749c3.348,0,6.144,0.791,8.385,2.373c2.505,1.819,3.757,4.351,3.757,7.594v12.617
			c0,1.714,0.013,4.278,0.04,7.693C138.011,360.271,138.024,362.835,138.024,364.549z"/>
		<path fill="#04505F" d="M171.089,354.107c0,0.791-0.099,1.991-0.297,3.599c-0.198,1.608-0.297,2.788-0.297,3.54
			s-0.079,1.233-0.237,1.444c-0.158,0.211-0.593,0.514-1.305,0.91c-3.401,1.872-7.172,2.808-11.312,2.808
			c-7.62,0-11.43-2.913-11.43-8.741c0-1.74,0.065-4.357,0.198-7.851c0.132-3.494,0.198-6.111,0.198-7.851
			c0-1.16-0.672-1.74-2.017-1.74c-0.105,0-0.277,0-0.514,0c-0.237,0.026-0.409,0.04-0.514,0.04c-1.002,0-1.503-0.356-1.503-1.068
			c0-0.421,0.033-1.068,0.099-1.938c0.065-0.87,0.099-1.516,0.099-1.938c0-0.554-0.033-1.397-0.099-2.531
			c-0.066-1.133-0.099-1.978-0.099-2.531c0-0.527,0.844-0.817,2.531-0.87c0.949-0.026,1.463-0.29,1.542-0.791
			c0.158-1.002,0.211-2.584,0.158-4.746c-0.105-3.401-0.158-5.023-0.158-4.865c0-3.059,0.29-4.588,0.87-4.588
			c0.712,0,1.727,0.158,3.045,0.475c1.503,0.343,2.544,0.541,3.125,0.593c1.345,0.185,3.375,0.435,6.091,0.751
			c0.659,0.053,0.989,0.277,0.989,0.672c0,1.055-0.086,2.65-0.257,4.786c-0.172,2.136-0.257,3.744-0.257,4.825
			c0,1.292,0.382,1.938,1.147,1.938c0.923,0,2.32-0.04,4.192-0.119c1.872-0.079,3.283-0.119,4.232-0.119
			c0.58,0,0.87,0.198,0.87,0.593c0,0.607-0.066,1.517-0.198,2.729c-0.132,1.213-0.198,2.123-0.198,2.729
			c0,0.633,0.013,1.556,0.04,2.769c0.026,1.213,0.04,2.136,0.04,2.769c0,0.554-0.382,0.831-1.147,0.831
			c-0.528,0-1.411-0.02-2.65-0.059c-1.24-0.04-2.123-0.059-2.65-0.059h-2.966c-0.396,0-0.593,0.58-0.593,1.74
			c0,0.633,0,1.569,0,2.808c0.026,1.266,0.04,2.202,0.04,2.808c0,2.215,0.25,3.744,0.751,4.588c0.712,1.134,2.109,1.701,4.192,1.701
			c0.659,0,1.602-0.152,2.828-0.455c1.226-0.303,2.09-0.455,2.591-0.455C170.812,353.237,171.089,353.528,171.089,354.107z"/>
		<path fill="#04505F" d="M213.289,346.237c0,6.012-1.839,10.89-5.517,14.634c-3.678,3.744-8.51,5.616-14.495,5.616
			c-5.801,0-10.574-1.846-14.317-5.537c-3.744-3.691-5.616-8.438-5.616-14.238c0-6.117,1.793-11.08,5.379-14.891
			c3.585-3.81,8.438-5.715,14.555-5.715c5.959,0,10.784,1.865,14.476,5.596C211.444,335.433,213.289,340.278,213.289,346.237z
			 M200.317,346.237c0-2.083-0.646-3.922-1.938-5.517c-1.292-1.595-2.966-2.393-5.023-2.393c-2.083,0-3.797,0.817-5.142,2.452
			c-1.266,1.529-1.898,3.349-1.898,5.458c0,2.136,0.633,3.969,1.898,5.498c1.345,1.635,3.059,2.452,5.142,2.452
			c2.057,0,3.757-0.817,5.102-2.452C199.697,350.206,200.317,348.373,200.317,346.237z"/>
		<path fill="#04505F" d="M257.389,364.549c0,0.712-0.37,1.121-1.107,1.226c-0.738,0.105-2.664,0.158-5.774,0.158
			c-3.322,0-5.379-0.079-6.17-0.237s-1.187-0.699-1.187-1.622c0-1.239,0.04-3.111,0.119-5.616c0.079-2.505,0.119-4.39,0.119-5.656
			c0-0.975-0.026-2.432-0.079-4.37c-0.053-1.938-0.079-3.395-0.079-4.37c0-3.612-1.569-5.418-4.707-5.418
			c-1.028,0-2.228,0.449-3.599,1.345c-1.477,1.002-2.215,1.991-2.215,2.966v21.357c0,0.87-0.409,1.358-1.226,1.463
			c-0.923,0.105-2.808,0.158-5.656,0.158c-3.085,0-5.089-0.079-6.012-0.237c-0.817-0.132-1.226-0.567-1.226-1.305
			c0-2.057,0.013-5.155,0.04-9.294c0.026-4.139,0.04-7.251,0.04-9.334c0-6.565-0.514-11.72-1.542-15.464
			c-0.053-0.237-0.079-0.435-0.079-0.593c0-0.421,0.198-0.712,0.593-0.87c1.661-0.184,3.876-0.475,6.645-0.87
			c4.192-0.817,6.552-1.226,7.08-1.226c0.29,0,0.514,0.89,0.672,2.67s0.382,2.67,0.672,2.67c-0.29,0,1.127-0.916,4.252-2.749
			c3.125-1.833,5.86-2.749,8.207-2.749c3.348,0,6.144,0.791,8.385,2.373c2.505,1.819,3.757,4.351,3.757,7.594v12.617
			c0,1.714,0.013,4.278,0.04,7.693C257.375,360.271,257.389,362.835,257.389,364.549z"/>
		<path fill="#04505F" d="M278.627,347.542c0,1.925,0.04,4.792,0.119,8.602c0.079,3.81,0.119,6.664,0.119,8.563
			c0,0.554-0.33,0.883-0.989,0.989c-0.896,0.158-2.914,0.237-6.051,0.237c-3.164,0-5.195-0.079-6.091-0.237
			c-0.58-0.105-0.936-0.277-1.068-0.514c-0.053-0.105-0.079-0.5-0.079-1.187c0-1.819,0.04-4.555,0.119-8.207
			c0.079-3.652,0.119-6.401,0.119-8.246c0-7.488-0.29-13.447-0.87-17.877c-0.053-0.421-0.079-0.698-0.079-0.831
			c0-0.527,0.356-0.791,1.068-0.791c0.738,0,1.865,0.079,3.382,0.237c1.516,0.158,2.656,0.237,3.421,0.237
			c0.765,0,1.912-0.065,3.441-0.198c1.529-0.132,2.676-0.198,3.441-0.198c0.633,0,0.949,0.264,0.949,0.791
			c0,0.105-0.026,0.356-0.079,0.751C278.917,334.807,278.627,340.766,278.627,347.542z M279.656,318.156
			c0,4.588-2.584,6.882-7.752,6.882c-2.215,0-4.048-0.58-5.498-1.74c-1.582-1.266-2.373-2.979-2.373-5.142
			c0-2.057,0.817-3.744,2.452-5.062c1.503-1.212,3.309-1.819,5.418-1.819c2.057,0,3.836,0.62,5.339,1.859
			C278.851,314.452,279.656,316.125,279.656,318.156z"/>
		<path fill="#04505F" d="M324.308,346.237c0,6.012-1.84,10.89-5.517,14.634c-3.679,3.744-8.51,5.616-14.496,5.616
			c-5.801,0-10.573-1.846-14.317-5.537s-5.616-8.438-5.616-14.238c0-6.117,1.793-11.08,5.379-14.891
			c3.586-3.81,8.438-5.715,14.555-5.715c5.959,0,10.784,1.865,14.476,5.596C322.462,335.433,324.308,340.278,324.308,346.237z
			 M311.335,346.237c0-2.083-0.646-3.922-1.938-5.517c-1.292-1.595-2.966-2.393-5.023-2.393c-2.083,0-3.797,0.817-5.142,2.452
			c-1.266,1.529-1.898,3.349-1.898,5.458c0,2.136,0.633,3.969,1.898,5.498c1.345,1.635,3.059,2.452,5.142,2.452
			c2.057,0,3.757-0.817,5.102-2.452C310.716,350.206,311.335,348.373,311.335,346.237z"/>
		<path d="M382.29,311.432c0,3.006-0.126,7.521-0.376,13.546c-0.25,6.025-0.375,10.554-0.375,13.586v26.064
			c0,0.712-0.382,1.068-1.147,1.068c-0.633,0-1.589,0.026-2.867,0.079c-1.28,0.053-2.235,0.079-2.868,0.079
			c-0.686,0-1.714-0.053-3.085-0.158s-2.399-0.158-3.085-0.158c-0.475,0-1.042-0.435-1.701-1.305
			c-1.898-2.557-6.17-8.227-12.814-17.007c-1.819-2.452-4.588-6.064-8.306-10.837c-0.105-0.158-0.303-0.316-0.593-0.475
			c-0.211,0.185-0.316,0.475-0.316,0.87c0,3.059,0.085,7.647,0.258,13.764c0.171,6.117,0.257,10.705,0.257,13.764
			c0,0.923-0.356,1.384-1.068,1.384h-13.685c-0.765,0-1.147-0.409-1.147-1.226c0-2.848,0.139-7.145,0.415-12.894
			c0.278-5.748,0.416-10.059,0.416-12.933c0-3.032-0.126-7.567-0.375-13.605c-0.251-6.038-0.376-10.56-0.376-13.566
			c0-0.58,0.514-0.87,1.542-0.87c1.529,0,3.415-0.105,5.656-0.316c0.527-0.053,1.569-0.224,3.125-0.514
			c1.318-0.237,2.36-0.356,3.125-0.356c0.316,0,0.804,0.449,1.463,1.345l14.752,20.21c1.318,1.819,3.309,4.483,5.972,7.989
			c0.659,0.817,1.226,1.226,1.701,1.226c0.343,0,0.514-1.028,0.514-3.085c0-2.769-0.152-6.935-0.454-12.498
			c-0.304-5.563-0.455-9.743-0.455-12.538c0-0.975,0.277-1.463,0.831-1.463c1.582,0,3.968-0.065,7.159-0.198
			c3.19-0.132,5.577-0.198,7.159-0.198C382.039,310.206,382.29,310.615,382.29,311.432z"/>
		<path fill="#48C2C5" d="M443.06,337.654c0,7.752-2.492,14.476-7.475,20.171c-4.403,5.089-10.586,7.765-18.549,8.029
			c-1.529,0.053-5.735,0.079-12.617,0.079c-1.292,0-3.237-0.04-5.834-0.119s-4.541-0.119-5.833-0.119
			c-0.765,0-1.147-0.303-1.147-0.91c0-2.9,0.112-7.258,0.336-13.072s0.337-10.171,0.337-13.072c0-3.032-0.113-7.574-0.337-13.625
			s-0.336-10.58-0.336-13.586c0-0.554,0.382-0.883,1.147-0.989c1.872-0.211,4.944-0.316,9.215-0.316
			c8.121,0,13.381,0.119,15.781,0.356c6.249,0.633,11.14,2.215,14.673,4.746c3.322,2.373,5.946,5.695,7.871,9.967
			C442.137,329.23,443.06,333.383,443.06,337.654z M426.112,337.654c0-4.456-1.332-8.094-3.995-10.916
			c-2.689-2.927-6.249-4.39-10.679-4.39c-4.061,0-6.091,0.541-6.091,1.622c0,1.556-0.026,3.896-0.079,7.02s-0.079,5.465-0.079,7.02
			c0,1.529,0.026,3.83,0.079,6.902c0.053,3.072,0.079,5.385,0.079,6.941c0,1.134,2.109,1.701,6.328,1.701
			c4.562,0,8.147-1.516,10.758-4.548C424.886,346.132,426.112,342.348,426.112,337.654z"/>
		<path fill="#48C2C5" d="M483.342,344.22c0,2.664-0.857,4.179-2.571,4.548c-0.29,0.053-3.019,0.343-8.187,0.87
			c-2.637,0.29-6.371,0.628-11.204,1.013c-1.874,0.149-2.353,2.681-0.66,3.499l1.304,0.629c1.529,0.738,3.27,1.107,5.221,1.107
			c2.318,0,4.65-0.618,6.994-1.853c0.057-0.03,0.113-0.063,0.167-0.097l1.603-1.012c0.856-0.541,1.982-0.305,2.546,0.536
			c0.442,0.659,0.963,1.546,1.565,2.664c1.304,2.426,1.957,3.969,1.957,4.627c0,0.185-0.198,0.488-0.593,0.91
			c-3.217,3.454-8.213,5.181-14.99,5.181c-6.275,0-11.338-1.833-15.188-5.498c-3.955-3.718-5.933-8.688-5.933-14.911
			c0-6.064,1.767-11.035,5.3-14.911c3.639-4.008,8.464-6.012,14.476-6.012c5.062,0,9.36,1.846,12.894,5.537
			C481.575,334.741,483.342,339.131,483.342,344.22z M469.499,341.807c0-1.635-0.58-3.071-1.74-4.311
			c-1.16-1.239-2.544-1.859-4.153-1.859c-1.661,0-3.032,0.699-4.113,2.096c-1.002,1.292-1.503,2.808-1.503,4.548
			c0,0.712,0.369,1.068,1.107,1.068c1.951,0,0.79,0.257,4.903-0.35C464.87,342.868,469.499,342.098,469.499,341.807z"/>
		<path d="M485.349,327.205"/>
	</g>
</g>
<path fill="none" stroke="#000000" stroke-miterlimit="10" d="M54.699,354.655"/>
<path fill="#2BB673" stroke="#000000" stroke-width="0.75" stroke-miterlimit="10" d="M487.599,326.755"/>
<g>
	<path fill="#33669A" d="M499.033,368.268c-0.868,0.112-1.759,0.077-2.592-0.193c-1.542-0.5-2.825-1.275-3.856-2.301
		c-1.36-1.354-2.279-3.143-2.77-5.312c-0.459-2.028-0.339-3.903,0.296-5.595c0.635-1.692,1.787-3.2,3.392-4.492
		c4.113-3.311,8.227-6.622,12.358-9.912s8.277-6.559,12.455-9.786c0.962-0.743,1.441-1.263,1.444-1.781
		c0.003-0.517-0.47-1.031-1.414-1.76c-4.061-3.136-8.09-6.313-12.111-9.5s-8.034-6.386-12.062-9.564
		c-1.695-1.337-3.011-2.857-3.8-4.584s-1.048-3.662-0.629-5.83c0.407-2.103,1.224-3.895,2.488-5.287
		c0.859-0.946,1.925-1.707,3.208-2.255c0.966-0.413,2.03-0.576,3.074-0.46c0.521,0.058,1.042,0.086,1.562,0.085
		c0.485-0.001,0.969-0.026,1.454-0.074c1.095-0.11,2.209,0.06,3.206,0.525c1.004,0.469,1.919,1.074,2.791,1.742
		c1.415,1.083,2.719,2.33,4.115,3.424c5.26,4.126,10.511,8.264,15.751,12.415c5.24,4.151,10.47,8.316,15.688,12.496
		c3.054,2.446,4.623,5.493,4.667,8.542c0.044,3.05-1.436,6.103-4.482,8.561c-6.094,4.92-12.23,9.788-18.378,14.641
		c-6.148,4.853-12.309,9.69-18.454,14.547c-0.631,0.499-1.294,0.933-2.004,1.264c-0.007,0.003-0.014,0.007-0.021,0.01
		c-1.014,0.468-2.157,0.584-3.265,0.439c-0.358-0.047-0.716-0.071-1.073-0.071C499.727,368.202,499.38,368.224,499.033,368.268z"/>
	<path fill="#48C2C5" d="M571.655,368.699c-0.467,0.263-0.956,0.335-1.45,0.342c-0.494,0.007-0.994-0.053-1.484-0.052
		c-8.178,0.008-16.356,0.011-24.534,0.011s-16.356,0-24.534,0c-0.299,0-0.599,0.005-0.898,0.007
		c-0.299,0.001-0.598-0.002-0.897-0.018c-0.341-0.019-0.718-0.012-1.038-0.105c-0.32-0.093-0.585-0.286-0.703-0.706
		c-0.119-0.423,0.017-0.725,0.248-0.974c0.231-0.249,0.557-0.443,0.818-0.651c2.927-2.321,5.915-4.574,8.865-6.869
		c2.95-2.295,5.863-4.631,8.641-7.119c2.011-1.801,4.074-3.009,6.293-3.73c2.219-0.722,4.595-0.959,7.231-0.818
		c3.729,0.198,7.467,0.239,11.207,0.233c3.74-0.005,7.482-0.055,11.221-0.038c0.049,0.147,0.062,0.289,0.041,0.425
		s-0.076,0.268-0.162,0.394c-0.202,0.223-0.436,0.402-0.681,0.566c-0.245,0.164-0.502,0.312-0.75,0.474
		c-3.382,2.199-5.047,5.386-5.01,8.551c0.037,3.164,1.776,6.305,5.202,8.411c0.41,0.252,0.882,0.421,1.312,0.651
		C571.025,367.914,571.413,368.204,571.655,368.699z"/>
	<path fill="#3F5DAA" d="M502.755,289.495c-0.893,0.398-1.785,0.601-2.677,0.601s-1.784-0.201-2.675-0.61
		c0.892-0.245,1.785-0.361,2.677-0.357S501.863,289.258,502.755,289.495z"/>
	<path fill="#3E5BA9" d="M498,368.47c0.691-0.394,1.382-0.589,2.073-0.589c0.691,0,1.383,0.195,2.075,0.583
		c-0.691,0.127-1.383,0.193-2.074,0.195S498.692,368.599,498,368.47z"/>
</g>
<ellipse fill="#666699" cx="570" cy="358.5" rx="11" ry="10.5"/>
<path fill="#666699" d="M569,352"/>
</svg>
